<?xml version="1.0" encoding="UTF-8" standalone="no"?>
<svg
   xmlns:dc="http://purl.org/dc/elements/1.1/"
   xmlns:cc="http://creativecommons.org/ns#"
   xmlns:rdf="http://www.w3.org/1999/02/22-rdf-syntax-ns#"
   xmlns:svg="http://www.w3.org/2000/svg"
   xmlns="http://www.w3.org/2000/svg"
   viewBox="0 0 2394.6667 474.66666"
   height="474.66666"
   width="2394.6667"
   xml:space="preserve"
   id="svg2"
   version="1.1"><metadata
     id="metadata8"><rdf:RDF><cc:Work
         rdf:about=""><dc:format>image/svg+xml</dc:format><dc:type
           rdf:resource="http://purl.org/dc/dcmitype/StillImage" /></cc:Work></rdf:RDF></metadata><defs
     id="defs6"><clipPath
       id="clipPath26"
       clipPathUnits="userSpaceOnUse"><path
         id="path24"
         d="M 0,356 H 1796 V 0 H 0 Z" /></clipPath></defs><g
     transform="matrix(1.3333333,0,0,-1.3333333,0,474.66667)"
     id="g10"><g
       transform="translate(40.4795,308.9014)"
       id="g12"><path
         id="path14"
         style="fill:#000000;fill-opacity:1;fill-rule:nonzero;stroke:none"
         d="M 0,0 H 292.969 V -43.634 H 168.303 V -261.803 H 124.666 V -43.634 L 0,-43.634 Z" /></g><g
       transform="translate(173.6255,55.5781)"
       id="g16"><path
         id="path18"
         style="fill:#000000;fill-opacity:1;fill-rule:nonzero;stroke:none"
         d="m 0,0 h 26.677 v 218.168 h 124.666 v 26.676 H -124.666 V 218.168 H 0 Z m 43.637,-16.959 h -60.596 v 218.168 h -124.666 v 60.594 H 168.303 V 201.209 H 43.637 Z" /></g><g
       id="g20"><g
         clip-path="url(#clipPath26)"
         id="g22"><g
           transform="translate(485.3276,262.1514)"
           id="g28"><path
             id="path30"
             style="fill:#000000;fill-opacity:1;fill-rule:nonzero;stroke:none"
             d="M 0,0 C -1.247,2.074 -3.329,3.116 -6.231,3.116 H -6.857 C -9.35,3.116 -11.432,2.074 -13.088,0 l -89.141,-88.516 c 0,-0.418 -0.211,-0.73 -0.621,-0.933 -0.418,-0.215 -0.625,-0.526 -0.625,-0.936 H 91.008 l -1.872,1.869 z m 139.629,-97.864 c 0,-1.247 0.096,-2.601 0.311,-4.052 0.203,-1.462 0.31,-2.806 0.31,-4.052 V -215.053 H 96.618 v 81.033 h -205.703 v -81.033 h -43.633 v 109.085 c 0,3.739 0.203,6.642 0.625,8.727 v 0.623 c 2.074,15.369 8.509,28.255 19.324,38.647 l 88.511,89.137 c 10.384,10.384 23.067,15.584 38.027,15.584 14.541,0 27.21,-5.2 38.022,-15.584 l 88.515,-89.137 c 11.22,-11.22 17.659,-24.311 19.323,-39.27 z" /></g><g
           transform="translate(401.7891,180.2461)"
           id="g32"><path
             id="path34"
             style="fill:#000000;fill-opacity:1;fill-rule:nonzero;stroke:none"
             d="M 0,0 H 153.985 L 76.976,76.471 76.425,75.889 Z m -23.191,-0.004 c -0.182,-0.089 -0.356,-0.186 -0.53,-0.292 0.174,0.102 0.348,0.198 0.53,0.292 M 195.034,-16.959 H -28.417 v 8.48 c 0,1.678 0.444,3.285 1.247,4.689 v 0.71 l 91.352,90.709 c 3.217,3.791 7.634,5.871 12.5,5.871 h 0.625 c 5.444,0 9.945,-2.184 12.811,-6.177 z m -6.398,-107.709 h 26.674 v 100.606 c 0,0.888 -0.087,1.844 -0.232,2.885 -0.253,1.721 -0.39,3.503 -0.39,5.218 v 0.136 c -1.536,12.921 -7.047,23.968 -16.839,33.761 l -88.536,89.158 c -9.122,8.755 -19.634,13.08 -32.006,13.08 -12.736,0 -23.216,-4.286 -32.031,-13.101 L -43.214,17.96 c -9.482,-9.118 -14.96,-19.958 -16.861,-33.259 l -0.169,-1.721 c -0.207,-1.028 -0.456,-3.084 -0.456,-7.042 v -100.606 h 26.673 v 81.033 h 222.663 z m 43.633,-16.959 h -60.592 v 81.033 H -17.067 v -81.033 h -60.592 v 117.565 c 0,3.879 0.203,7 0.625,9.496 l 0.075,0.988 c 2.331,17.253 9.68,31.931 21.853,43.626 l 88.371,88.997 c 12.007,12.012 26.821,18.09 44.042,18.09 16.728,0 31.497,-6.039 43.898,-17.949 L 209.86,29.909 c 12.542,-12.54 19.863,-27.454 21.734,-44.307 l 0.054,-1.561 c 0,-0.885 0.074,-1.828 0.219,-2.808 0.274,-1.974 0.402,-3.68 0.402,-5.295 z" /></g><g
           transform="translate(941.605,265.2671)"
           id="g36"><path
             id="path38"
             style="fill:#000000;fill-opacity:1;fill-rule:nonzero;stroke:none"
             d="m 0,0 h -231.879 c -2.915,0 -5.205,-1.042 -6.857,-3.116 -1.669,-1.246 -2.497,-3.331 -2.497,-6.233 v -46.75 c 0,-2.913 0.828,-4.987 2.497,-6.234 1.652,-2.084 3.942,-3.118 6.857,-3.118 h 187.001 c 14.541,0 27.008,-5.2 37.4,-15.583 10.381,-10.392 15.581,-22.859 15.581,-37.401 v -46.75 c 0,-14.959 -5.2,-27.427 -15.581,-37.4 -10.392,-10.391 -22.859,-15.583 -37.4,-15.583 h -232.506 v 43.634 h 232.506 c 2.492,0 4.566,0.828 6.231,2.492 2.074,2.075 3.118,4.365 3.118,6.857 v 46.75 c 0,2.903 -1.044,4.987 -3.118,6.234 -2.083,2.075 -4.157,3.118 -6.231,3.118 h -187.001 c -14.964,0 -27.642,5.19 -38.027,15.583 -9.974,9.974 -14.959,22.439 -14.959,37.401 v 46.75 c 0,14.541 5.192,27.008 15.584,37.399 9.97,10.384 22.438,15.584 37.402,15.584 L 0,43.634 Z" /></g><g
           transform="translate(708.127,255.5078)"
           id="g40"><path
             id="path42"
             style="fill:#000000;fill-opacity:1;fill-rule:nonzero;stroke:none"
             d="M 0,0 -0.182,-0.151 C -0.12,-0.102 -0.058,-0.052 0,0 m 0.779,-47.036 z m 187.133,-60.65 z M -35.426,-199.93 H 188.6 c 12.317,0 22.59,4.285 31.405,13.101 8.852,8.507 13.097,18.742 13.097,31.403 v 46.75 c 0,12.311 -4.286,22.583 -13.101,31.408 -8.819,8.811 -19.092,13.097 -31.401,13.097 H 1.599 c -5.189,0 -9.611,1.912 -12.845,5.546 -2.455,2.176 -4.989,5.954 -4.989,12.285 V 0.41 c 0,6.345 2.547,10.128 5.006,12.299 3.217,3.574 7.73,5.53 12.828,5.53 h 223.4 V 44.914 H 1.599 c -12.666,0 -22.902,-4.246 -31.286,-12.978 C -38.622,22.999 -42.908,12.728 -42.908,0.41 v -46.75 c 0,-12.738 4.083,-23.011 12.475,-31.406 8.808,-8.815 19.287,-13.099 32.032,-13.099 H 188.6 c 4.119,0 7.999,-1.662 11.543,-4.943 4.062,-2.861 6.285,-7.393 6.285,-12.888 v -46.75 c 0,-4.743 -1.937,-9.187 -5.602,-12.851 -3.254,-3.257 -7.482,-4.978 -12.226,-4.978 H -35.426 Z M 188.6,-216.889 H -52.385 v 60.594 H 188.6 c 0.782,0.555 0.869,0.84 0.869,0.845 v 46.382 l -0.621,0.619 c -0.34,0.337 -0.592,0.536 -0.749,0.645 H 1.599 c -17.233,0 -32.044,6.078 -44.026,18.07 -11.573,11.572 -17.44,26.171 -17.44,43.394 V 0.41 c 0,16.808 6.078,31.408 18.069,43.397 11.469,11.947 26.11,18.067 43.397,18.067 H 241.958 V 1.279 H 1.599 C 1.292,1.279 1.16,1.242 1.16,1.242 L 0.733,0.704 C 0.729,0.621 0.725,0.521 0.725,0.41 v -46.75 -0.133 l 0.584,-0.735 c 0.045,0.009 0.153,-0.004 0.29,-0.004 H 188.6 c 16.797,0 31.397,-6.078 43.392,-18.062 11.99,-12.006 18.069,-26.606 18.069,-43.402 v -46.75 c 0,-17.28 -6.12,-31.921 -18.185,-43.514 -11.871,-11.871 -26.47,-17.949 -43.276,-17.949" /></g><g
           transform="translate(1224.5947,95.7178)"
           id="g44"><path
             id="path46"
             style="fill:#000000;fill-opacity:1;fill-rule:nonzero;stroke:none"
             d="m 0,0 c 3.739,2.903 5.61,6.857 5.61,11.844 v 31.168 c 0,4.148 -1.664,8.307 -4.984,12.467 H 0 c -3.328,3.321 -6.856,4.987 -10.595,4.987 H -200.093 V -4.984 H -11.842 C -6.856,-4.984 -2.91,-3.331 0,0 m 5.61,152.721 c 0,2.492 -0.418,4.566 -1.246,6.233 -0.836,1.653 -2.087,3.525 -3.738,5.608 H 0 c -2.91,3.323 -6.856,4.987 -11.842,4.987 h -188.251 v -65.45 h 189.498 c 3.739,0 7.267,1.656 10.595,4.987 3.739,2.902 5.61,6.856 5.61,11.844 z m 25.556,42.385 c 12.049,-12.057 18.077,-26.18 18.077,-42.385 V 120.93 c 0,-14.96 -4.782,-27.847 -14.334,-38.648 9.552,-11.638 14.334,-24.729 14.334,-39.27 V 11.844 c 0,-16.626 -6.028,-30.962 -18.077,-43.009 C 19.527,-42.804 5.192,-48.619 -11.842,-48.619 h -231.883 v 261.803 h 231.883 c 16.616,0 30.95,-6.029 43.008,-18.078" /></g><g
           transform="translate(1032.9814,208.2959)"
           id="g48"><path
             id="path50"
             style="fill:#000000;fill-opacity:1;fill-rule:nonzero;stroke:none"
             d="m 0,0 h 181.019 c 0.517,0 2.098,0 4.595,2.501 l 0.799,0.706 c 1.656,1.283 2.331,2.774 2.331,5.145 v 31.791 c 0,1.61 -0.277,2.289 -0.36,2.459 -0.12,0.234 -0.281,0.534 -0.505,0.902 h -0.111 l -2.535,2.892 c -0.907,1.036 -2.264,2.095 -5.462,2.095 L 0,48.491 Z M 181.019,-16.959 H -16.959 v 82.41 h 196.73 c 5.868,0 11.043,-1.712 15.184,-4.988 h 1.383 l 2.542,-3.208 c 2.037,-2.567 3.565,-4.876 4.667,-7.054 1.44,-2.9 2.157,-6.266 2.157,-10.058 V 8.352 c 0,-7.426 -2.924,-13.707 -8.459,-18.203 -4.865,-4.717 -10.322,-7.108 -16.226,-7.108 M 0,-109.083 h 179.771 c 3.202,0 4.555,1.054 5.458,2.085 l 1.184,1.117 c 1.656,1.286 2.331,2.777 2.331,5.147 v 31.168 c 0,1.511 -0.517,3.148 -1.54,4.887 l -1.577,1.575 c -2.518,2.512 -4.091,2.512 -4.608,2.512 H 0 Z m 179.771,-16.96 h -196.73 v 82.41 h 197.978 c 4.93,0 9.56,-1.675 13.792,-4.987 h 1.51 l 2.542,-3.188 c 4.538,-5.685 6.841,-11.658 6.841,-17.758 v -31.168 c 0,-7.334 -2.853,-13.554 -8.261,-18.036 -4.463,-4.761 -10.553,-7.273 -17.672,-7.273 m -223.403,-26.675 h 223.403 c 14.833,0 26.939,4.897 37.013,14.97 10.491,10.492 15.593,22.599 15.593,37.014 v 31.168 c 0,12.63 -4.058,23.716 -12.409,33.889 l -4.583,5.586 4.786,5.413 c 8.215,9.287 12.206,20.09 12.206,33.03 v 31.791 c 0,13.986 -5.102,25.887 -15.593,36.39 -10.501,10.492 -22.607,15.593 -37.013,15.593 H -43.632 Z m 223.403,-16.959 H -60.592 v 278.762 h 240.363 c 18.865,0 35.352,-6.917 49.003,-20.559 l 0.004,-0.005 c 13.64,-13.65 20.558,-29.927 20.558,-48.378 V 8.352 c 0,-14.585 -4.065,-27.607 -12.103,-38.807 8.038,-11.774 12.103,-24.899 12.103,-39.111 v -31.168 c 0,-18.876 -6.918,-35.364 -20.562,-49.007 -13.228,-13.229 -29.715,-19.936 -49.003,-19.936" /></g><g
           transform="translate(1351.75,199.8164)"
           id="g52"><path
             id="path54"
             style="fill:#000000;fill-opacity:1;fill-rule:nonzero;stroke:none"
             d="m 0,0 c -2.083,-2.085 -3.118,-4.159 -3.118,-6.233 v -93.501 c 0,-2.085 0.828,-4.365 2.497,-6.857 1.651,-1.664 3.941,-2.492 6.856,-2.492 h 124.666 c 2.903,0 5.193,0.828 6.857,2.492 1.656,1.656 2.492,3.944 2.492,6.857 v 93.501 c 0,2.494 -0.836,4.568 -2.492,6.233 -1.664,2.074 -3.954,3.117 -6.857,3.117 H 6.235 C 2.902,3.117 0.828,2.074 0,0 m 183.887,-99.734 c 0,-14.959 -5.204,-27.427 -15.585,-37.401 -9.974,-10.39 -22.442,-15.583 -37.401,-15.583 H 6.235 c -14.553,0 -27.02,5.193 -37.401,15.583 -10.393,9.974 -15.585,22.442 -15.585,37.401 v 93.501 c 0,14.541 5.192,27.007 15.585,37.4 C -20.785,41.55 -8.318,46.75 6.235,46.75 h 124.666 c 14.959,0 27.427,-5.2 37.401,-15.583 10.381,-10.393 15.585,-22.859 15.585,-37.4 z" /></g><g
           transform="translate(1357.4219,99.2354)"
           id="g56"><path
             id="path58"
             style="fill:#000000;fill-opacity:1;fill-rule:nonzero;stroke:none"
             d="m 0,0 c 0.141,-0.01 0.327,-0.022 0.563,-0.022 h 124.666 c 0.422,0 0.692,0.039 0.849,0.072 -0.016,0.103 0.021,0.375 0.021,0.797 v 93.501 l -0.596,0.865 c -0.054,0 -0.149,0.006 -0.274,0.006 H 0.957 l -0.63,-0.631 c -0.331,-0.334 -0.53,-0.58 -0.638,-0.734 V 0.847 C -0.311,0.847 -0.273,0.573 0,0 M 125.229,-16.982 H 0.563 c -6.542,0 -10.612,2.718 -12.876,5 l -1.028,1.254 c -2.608,3.896 -3.929,7.79 -3.929,11.575 v 93.501 c 0,3.995 1.557,7.758 4.633,11.204 1.694,2.817 5.42,6.627 13.2,6.627 h 124.666 c 5.354,0 9.9,-2.054 13.184,-5.943 3.043,-3.216 4.646,-7.315 4.646,-11.888 V 0.847 c 0,-6.511 -2.708,-10.583 -4.978,-12.852 -2.269,-2.271 -6.343,-4.977 -12.852,-4.977 M 0.563,138.852 c -12.318,0 -22.59,-4.286 -31.406,-13.099 -8.814,-8.817 -13.099,-19.09 -13.099,-31.405 V 0.847 c 0,-12.67 4.243,-22.904 12.975,-31.284 8.932,-8.937 19.204,-13.22 31.53,-13.22 h 124.666 c 12.67,0 22.901,4.244 31.286,12.976 8.976,8.635 13.22,18.868 13.22,31.528 v 93.501 c 0,12.305 -4.285,22.58 -13.104,31.407 -8.505,8.85 -18.74,13.097 -31.402,13.097 z M 125.229,-60.616 H 0.563 c -16.818,0 -31.421,6.08 -43.4,18.068 -11.945,11.461 -18.065,26.105 -18.065,43.395 v 93.501 c 0,16.805 6.078,31.407 18.069,43.396 11.986,11.988 26.586,18.067 43.396,18.067 h 124.666 c 17.283,0 31.923,-6.12 43.517,-18.187 11.87,-11.884 17.949,-26.485 17.949,-43.276 V 0.847 c 0,-17.277 -6.12,-31.917 -18.189,-43.515 -11.345,-11.829 -25.986,-17.948 -43.277,-17.948" /></g><g
           transform="translate(1560.6367,246.5664)"
           id="g60"><path
             id="path62"
             style="fill:#000000;fill-opacity:1;fill-rule:nonzero;stroke:none"
             d="M 0,0 H 31.166 V 62.335 H 74.798 V 0 H 183.884 V -43.633 H 74.798 v -102.851 c 0,-2.913 0.828,-5.201 2.497,-6.857 1.652,-1.664 3.941,-2.492 6.856,-2.492 h 99.733 v -43.635 H 84.151 c -14.963,0 -27.641,5.193 -38.026,15.583 -9.974,9.974 -14.959,22.442 -14.959,37.401 v 102.851 l -31.166,0 z" /></g><g
           transform="translate(1569.1172,211.4141)"
           id="g64"><path
             id="path66"
             style="fill:#000000;fill-opacity:1;fill-rule:nonzero;stroke:none"
             d="m 0,0 h 31.165 v -111.332 c 0,-12.738 4.082,-23.011 12.476,-31.405 8.81,-8.816 19.286,-13.099 32.03,-13.099 h 91.253 v 26.675 H 75.671 c -6.542,0 -10.612,2.719 -12.877,5 -2.235,2.22 -4.956,6.291 -4.956,12.829 V 0 H 166.924 V 26.673 H 57.838 V 89.008 H 31.165 V 26.673 L 0,26.673 Z M 183.883,-172.795 H 75.671 c -17.229,0 -32.043,6.078 -44.025,18.068 -11.574,11.574 -17.44,26.172 -17.44,43.395 V -16.96 H -16.96 v 60.592 h 31.166 v 62.335 H 74.798 V 43.632 H 183.883 V -16.96 H 74.798 v -94.372 c 0,-0.422 0.037,-0.693 0.07,-0.849 0.104,0.03 0.381,-0.02 0.803,-0.02 h 108.212 z" /></g><text
           id="text70"
           style="font-variant:normal;font-weight:normal;font-stretch:normal;font-size:609.921875px;font-family:ISL_Jupiter;-inkscape-font-specification:ISL_Jupiter;writing-mode:lr-tb;fill:#000000;fill-opacity:1;fill-rule:nonzero;stroke:none"
           transform="matrix(1,0,0,-1,32.2979,-462.7988)"><tspan
             id="tspan68"
             y="0"
             x="0 347.65549 420.8461 738.00549">4:20</tspan></text>
</g></g></g></svg>