<?xml version="1.0" encoding="UTF-8" standalone="no"?>
<svg
   xmlns:dc="http://purl.org/dc/elements/1.1/"
   xmlns:cc="http://creativecommons.org/ns#"
   xmlns:rdf="http://www.w3.org/1999/02/22-rdf-syntax-ns#"
   xmlns:svg="http://www.w3.org/2000/svg"
   xmlns="http://www.w3.org/2000/svg"
   viewBox="0 0 1345.9333 1355.4268"
   height="1355.4268"
   width="1345.9333"
   xml:space="preserve"
   id="svg2"
   version="1.1"><metadata
     id="metadata8"><rdf:RDF><cc:Work
         rdf:about=""><dc:format>image/svg+xml</dc:format><dc:type
           rdf:resource="http://purl.org/dc/dcmitype/StillImage" /></cc:Work></rdf:RDF></metadata><defs
     id="defs6"><clipPath
       id="clipPath64"
       clipPathUnits="userSpaceOnUse"><path
         id="path62"
         d="M 0,1016.566 H 1009.45 V 0 H 0 Z" /></clipPath></defs><g
     transform="matrix(1.3333333,0,0,-1.3333333,0,1355.4267)"
     id="g10"><path
       id="path12"
       style="fill:#e1e1e5;fill-opacity:1;fill-rule:nonzero;stroke:none"
       d="m 509.398,689.998 h -14.667 v 69.333 h 14.667 z" /><path
       id="path14"
       style="fill:#515355;fill-opacity:1;fill-rule:nonzero;stroke:none"
       d="m 456.537,703.998 h 32 v 11.417 h -32 z" /><path
       id="path16"
       style="fill:#515355;fill-opacity:1;fill-rule:nonzero;stroke:none"
       d="m 514.871,703.998 h 32 v 11.417 h -32 z" /><g
       transform="translate(575.5652,327.3864)"
       id="g18"><path
         id="path20"
         style="fill:#858f8e;fill-opacity:1;fill-rule:nonzero;stroke:none"
         d="M 0,0 H -8.75 V -5.991 H -136.994 L -137.027,0 H -147 v 92 l 28.709,1.5 h 90.332 L 0,92 Z" /></g><g
       transform="translate(566.8152,327.3864)"
       id="g22"><path
         id="path24"
         style="fill:#a8a9ad;fill-opacity:1;fill-rule:nonzero;stroke:none"
         d="m 0,0 h -128.277 v 92.521 l 17.36,0.979 h 93.251 L 0,92.521 Z" /></g><path
       id="path26"
       style="fill:#515355;fill-opacity:1;fill-rule:nonzero;stroke:none"
       d="m 438.538,391.303 h 20.777 v 4.75 h -20.777 z" /><path
       id="path28"
       style="fill:#515355;fill-opacity:1;fill-rule:nonzero;stroke:none"
       d="m 438.538,382.636 h 20.777 v 4.75 h -20.777 z" /><path
       id="path30"
       style="fill:#515355;fill-opacity:1;fill-rule:nonzero;stroke:none"
       d="m 438.538,373.969 h 20.777 v 4.75 h -20.777 z" /><path
       id="path32"
       style="fill:#515355;fill-opacity:1;fill-rule:nonzero;stroke:none"
       d="m 438.538,365.303 h 20.777 v 4.75 h -20.777 z" /><path
       id="path34"
       style="fill:#515355;fill-opacity:1;fill-rule:nonzero;stroke:none"
       d="m 438.538,356.636 h 20.777 v 4.75 h -20.777 z" /><path
       id="path36"
       style="fill:#515355;fill-opacity:1;fill-rule:nonzero;stroke:none"
       d="m 438.538,347.969 h 20.777 v 4.75 h -20.777 z" /><path
       id="path38"
       style="fill:#515355;fill-opacity:1;fill-rule:nonzero;stroke:none"
       d="m 438.538,339.303 h 20.777 v 4.75 h -20.777 z" /><path
       id="path40"
       style="fill:#515355;fill-opacity:1;fill-rule:nonzero;stroke:none"
       d="m 438.538,330.636 h 20.777 v 4.75 h -20.777 z" /><path
       id="path42"
       style="fill:#515355;fill-opacity:1;fill-rule:nonzero;stroke:none"
       d="m 545.12,391.303 h 20.777 v 4.75 H 545.12 Z" /><path
       id="path44"
       style="fill:#515355;fill-opacity:1;fill-rule:nonzero;stroke:none"
       d="m 545.12,382.636 h 20.777 v 4.75 H 545.12 Z" /><path
       id="path46"
       style="fill:#515355;fill-opacity:1;fill-rule:nonzero;stroke:none"
       d="m 545.12,373.969 h 20.777 v 4.75 H 545.12 Z" /><path
       id="path48"
       style="fill:#515355;fill-opacity:1;fill-rule:nonzero;stroke:none"
       d="m 545.12,365.303 h 20.777 v 4.75 H 545.12 Z" /><path
       id="path50"
       style="fill:#515355;fill-opacity:1;fill-rule:nonzero;stroke:none"
       d="m 545.12,356.636 h 20.777 v 4.75 H 545.12 Z" /><path
       id="path52"
       style="fill:#515355;fill-opacity:1;fill-rule:nonzero;stroke:none"
       d="m 545.12,347.969 h 20.777 v 4.75 H 545.12 Z" /><path
       id="path54"
       style="fill:#515355;fill-opacity:1;fill-rule:nonzero;stroke:none"
       d="m 545.12,339.303 h 20.777 v 4.75 H 545.12 Z" /><path
       id="path56"
       style="fill:#515355;fill-opacity:1;fill-rule:nonzero;stroke:none"
       d="m 545.12,330.636 h 20.777 v 4.75 H 545.12 Z" /><g
       id="g58"><g
         clip-path="url(#clipPath64)"
         id="g60"><g
           transform="translate(593.2869,488.6647)"
           id="g66"><path
             id="path68"
             style="fill:#babdc2;fill-opacity:1;fill-rule:nonzero;stroke:none"
             d="m 0,0 h -187.167 c -10.723,0 -19.416,8.693 -19.416,19.417 V 164.25 c 0,10.724 8.693,19.417 19.416,19.417 H 0 c 10.724,0 19.417,-8.693 19.417,-19.417 V 19.417 C 19.417,8.693 10.724,0 0,0" /></g><g
           transform="translate(666.0613,664.6291)"
           id="g70"><path
             id="path72"
             style="fill:#858f8e;fill-opacity:1;fill-rule:nonzero;stroke:none"
             d="m 0,0 c -10.508,4.427 -54.218,5.012 -77.957,5.012 l -2.096,0.755 c -0.016,0.006 -1.415,0.436 -1.431,0.441 l -1.48,0.397 c -0.017,0.005 -0.035,0.009 -0.053,0.013 l -2.831,0.587 c 0,0 9.883,-69.189 9.573,-100.258 -0.226,-22.598 -0.123,-51.277 -0.051,-65.237 0.024,-4.636 -3.727,-8.398 -8.363,-8.398 h -81.312 -0.713 -81.311 c -4.637,0 -8.388,3.762 -8.364,8.398 0.073,13.96 0.176,42.639 -0.05,65.237 -0.311,31.069 9.683,100.258 9.683,100.258 L -250.607,6.38 C -253.04,5.706 -254.913,4.941 -255.11,4.941 -278.913,4.939 -322.25,4.409 -332.715,0 c -32.995,-13.902 -81.247,-86.053 -81.247,-147.037 v -40.39 c 3.884,-55.536 29.05,-72.314 71.382,-71.382 l 176.203,-0.155 h 0.02 0.019 l 176.202,0.155 c 42.333,-0.932 67.499,15.846 71.383,71.382 v 40.39 C 81.247,-86.053 32.995,-13.902 0,0" /></g><g
           transform="translate(726.9441,823.3312)"
           id="g74"><path
             id="path76"
             style="fill:#cccdcf;fill-opacity:1;fill-rule:nonzero;stroke:none"
             d="m 0,0 h -20.417 v 107.271 h 11.75 c 6.489,0 11.75,-5.261 11.75,-11.75 V 3.083 C 3.083,1.381 1.703,0 0,0" /></g><g
           transform="translate(726.1511,904.5666)"
           id="g78"><path
             id="path80"
             style="fill:#a8a9ad;fill-opacity:1;fill-rule:nonzero;stroke:none"
             d="m 0,0 h -19.78 l 0.156,23.458 1.719,-0.192 c 10.512,0 19.658,-8.933 19.658,-18.615 V 4.538 C 1.753,1.998 2.759,0 0,0" /></g><g
           transform="translate(308.7038,950.6647)"
           id="g82"><path
             id="path84"
             style="fill:#cccdcf;fill-opacity:1;fill-rule:nonzero;stroke:none"
             d="m 0,0 c 8.874,19.295 30.665,37.625 49.988,37.625 h 285.571 c 17.84,0 45.398,-17.375 48.441,-36.208" /></g><g
           transform="translate(706.7058,790.1022)"
           id="g86"><path
             id="path88"
             style="fill:#e1e1e5;fill-opacity:1;fill-rule:nonzero;stroke:none"
             d="m 0,0 c 0,-10.45 -8.55,-19 -19,-19 h -371.002 c -10.45,0 -19,8.55 -19,19 v 155.812 c 0,10.451 8.55,19 19,19 H -19 c 10.45,0 19,-8.549 19,-19 z" /></g><g
           transform="translate(706.7058,787.4977)"
           id="g90"><path
             id="path92"
             style="fill:#b4b3bb;fill-opacity:1;fill-rule:nonzero;stroke:none"
             d="m 0,0 c 0,-10.45 -8.55,-19 -19,-19 h -371.002 c -10.45,0 -19,8.55 -19,19 v 154.667 c 0,10.45 8.55,19 19,19 H -19 c 10.45,0 19,-8.55 19,-19 z" /></g><g
           transform="translate(694.2039,797.1647)"
           id="g94"><path
             id="path96"
             style="fill:#1d1e1e;fill-opacity:1;fill-rule:nonzero;stroke:none"
             d="m 0,0 c 0,-8.8 -7.2,-16 -16,-16 h -353.5 c -8.8,0 -16,7.2 -16,16 v 137.5 c 0,8.8 7.2,16 16,16 H -16 c 8.8,0 16,-7.2 16,-16 z" /></g><g
           transform="translate(694.2039,797.1647)"
           id="g98"><path
             id="path100"
             style="fill:none;stroke:#161415;stroke-width:1;stroke-linecap:butt;stroke-linejoin:miter;stroke-miterlimit:10;stroke-dasharray:none;stroke-opacity:1"
             d="m 0,0 c 0,-8.8 -7.2,-16 -16,-16 h -353.5 c -8.8,0 -16,7.2 -16,16 v 137.5 c 0,8.8 7.2,16 16,16 H -16 c 8.8,0 16,-7.2 16,-16 z" /></g><g
           transform="translate(687.7039,803.8317)"
           id="g102"><path
             id="path104"
             style="fill:#303335;fill-opacity:1;fill-rule:nonzero;stroke:none"
             d="m 0,0 c 0,-8.8 -7.2,-16 -16,-16 h -340.333 c -8.8,0 -16,7.2 -16,16 v 124.166 c 0,8.8 7.2,16 16,16 H -16 c 8.8,0 16,-7.2 16,-16 z" /></g><g
           transform="translate(687.7039,803.8317)"
           id="g106"><path
             id="path108"
             style="fill:none;stroke:#0c0f0f;stroke-width:1;stroke-linecap:butt;stroke-linejoin:miter;stroke-miterlimit:10;stroke-dasharray:none;stroke-opacity:1"
             d="m 0,0 c 0,-8.8 -7.2,-16 -16,-16 h -340.333 c -8.8,0 -16,7.2 -16,16 v 124.166 c 0,8.8 7.2,16 16,16 H -16 c 8.8,0 16,-7.2 16,-16 z" /></g><g
           transform="translate(319.801,938.8317)"
           id="g110"><path
             id="path112"
             style="fill:#090e0d;fill-opacity:1;fill-rule:nonzero;stroke:none"
             d="m 0,0 c 0,0 58.569,-7.334 82.403,-7.334 h 141.5 l 59.139,-0.182 c 0,0 23.792,-0.583 77.375,10.167 l -3.833,1.75 -6.167,0.765 h -6.416 l -4.557,-0.208 -8.332,0.208 H 11.5 C 11.5,5.166 6.625,5.459 0,0" /></g><g
           transform="translate(750.655,421.1647)"
           id="g114"><path
             id="path116"
             style="fill:#cbccce;fill-opacity:1;fill-rule:nonzero;stroke:none"
             d="m 0,0 h 94.924 c 17.189,0 31.125,13.936 31.125,31.125 V 110 c 3,85.25 -98.75,111.875 -163.5,115 h -0.962 z" /></g><g
           transform="translate(864.2937,560.0593)"
           id="g118"><path
             id="path120"
             style="fill:#231f20;fill-opacity:1;fill-rule:nonzero;stroke:none"
             d="m 0,0 c -4.916,-4.296 -25.881,-14.999 -112.257,-13.395 l 1.667,-109 h 88.333 c 12.335,0 22.334,9.999 22.334,22.333 L 1.423,-0.439 C 1.005,-0.151 0.521,-0.009 0,0" /></g><path
           id="path122"
           style="fill:#dddddf;fill-opacity:1;fill-rule:nonzero;stroke:none"
           d="m 488.537,710.165 h -74 v 12.333 h 74 z" /><path
           id="path124"
           style="fill:#dddddf;fill-opacity:1;fill-rule:nonzero;stroke:none"
           d="m 588.871,710.165 h -74 v 12.333 h 74 z" /><g
           transform="translate(596.1414,759.4147)"
           id="g126"><path
             id="path128"
             style="fill:#a5adaf;fill-opacity:1;fill-rule:nonzero;stroke:none"
             d="m 0,0 h -189.375 c -1.691,0 -3.063,1.371 -3.063,3.063 v 8.625 c 0,1.691 1.372,3.062 3.063,3.062 H 0 c 1.691,0 3.063,-1.371 3.063,-3.062 V 3.063 C 3.063,1.371 1.691,0 0,0" /></g><g
           transform="translate(663.5378,882.8317)"
           id="g130"><path
             id="path132"
             style="fill:#090e0d;fill-opacity:1;fill-rule:nonzero;stroke:none"
             d="m 0,0 23.334,37.166 0.832,-101 -2.332,-12 L 2,-41.001 c 0,0 4.166,28.334 -2,41.001" /></g><g
           transform="translate(339.5368,882.8317)"
           id="g134"><path
             id="path136"
             style="fill:#090e0d;fill-opacity:1;fill-rule:nonzero;stroke:none"
             d="m 0,0 -23.334,37.166 -0.832,-101 2.332,-12 L -2,-41.001 c 0,0 -4.166,28.334 2,41.001" /></g><g
           transform="translate(417.5373,768.4977)"
           id="g138"><path
             id="path140"
             style="fill:#dddddf;fill-opacity:1;fill-rule:nonzero;stroke:none"
             d="M 0,0 V -36.833 H 10 V -19 h 148 v -17.833 h 8.334 V 0" /></g><g
           transform="translate(460.8703,722.4982)"
           id="g142"><path
             id="path144"
             style="fill:#a5adaf;fill-opacity:1;fill-rule:nonzero;stroke:none"
             d="M 0,0 H -27.333 V 27 H -9.25 L -9.333,8.159 Z" /></g><g
           transform="translate(541.9958,722.4982)"
           id="g146"><path
             id="path148"
             style="fill:#a5adaf;fill-opacity:1;fill-rule:nonzero;stroke:none"
             d="M 0,0 H 27.333 V 27 H 9.25 L 9.333,8.159 Z" /></g><g
           transform="translate(574.9539,609.9147)"
           id="g150"><path
             id="path152"
             style="fill:#858f8e;fill-opacity:1;fill-rule:nonzero;stroke:none"
             d="M 0,0 H -8.75 V -5.991 H -136.994 L -137.027,0 H -147 v 92 l 28.709,1.5 h 90.332 L 0,92 Z" /></g><g
           transform="translate(566.2039,609.9147)"
           id="g154"><path
             id="path156"
             style="fill:#a8a9ad;fill-opacity:1;fill-rule:nonzero;stroke:none"
             d="m 0,0 h -128.277 v 92.521 l 17.36,0.979 h 93.251 L 0,92.521 Z" /></g><path
           id="path158"
           style="fill:#515355;fill-opacity:1;fill-rule:nonzero;stroke:none"
           d="m 437.926,673.831 h 20.777 v 4.75 h -20.777 z" /><path
           id="path160"
           style="fill:#515355;fill-opacity:1;fill-rule:nonzero;stroke:none"
           d="m 437.926,665.165 h 20.777 v 4.75 h -20.777 z" /><path
           id="path162"
           style="fill:#515355;fill-opacity:1;fill-rule:nonzero;stroke:none"
           d="m 437.926,656.498 h 20.777 v 4.75 h -20.777 z" /><path
           id="path164"
           style="fill:#515355;fill-opacity:1;fill-rule:nonzero;stroke:none"
           d="m 437.926,647.831 h 20.777 v 4.75 h -20.777 z" /><path
           id="path166"
           style="fill:#515355;fill-opacity:1;fill-rule:nonzero;stroke:none"
           d="m 437.926,639.165 h 20.777 v 4.75 h -20.777 z" /><path
           id="path168"
           style="fill:#515355;fill-opacity:1;fill-rule:nonzero;stroke:none"
           d="m 437.926,630.498 h 20.777 v 4.75 h -20.777 z" /><path
           id="path170"
           style="fill:#515355;fill-opacity:1;fill-rule:nonzero;stroke:none"
           d="m 437.926,621.831 h 20.777 v 4.75 h -20.777 z" /><path
           id="path172"
           style="fill:#515355;fill-opacity:1;fill-rule:nonzero;stroke:none"
           d="m 437.926,613.165 h 20.777 v 4.75 h -20.777 z" /><path
           id="path174"
           style="fill:#515355;fill-opacity:1;fill-rule:nonzero;stroke:none"
           d="m 544.509,673.831 h 20.777 v 4.75 h -20.777 z" /><path
           id="path176"
           style="fill:#515355;fill-opacity:1;fill-rule:nonzero;stroke:none"
           d="m 544.509,665.165 h 20.777 v 4.75 h -20.777 z" /><path
           id="path178"
           style="fill:#515355;fill-opacity:1;fill-rule:nonzero;stroke:none"
           d="m 544.509,656.498 h 20.777 v 4.75 h -20.777 z" /><path
           id="path180"
           style="fill:#515355;fill-opacity:1;fill-rule:nonzero;stroke:none"
           d="m 544.509,647.831 h 20.777 v 4.75 h -20.777 z" /><path
           id="path182"
           style="fill:#515355;fill-opacity:1;fill-rule:nonzero;stroke:none"
           d="m 544.509,639.165 h 20.777 v 4.75 h -20.777 z" /><path
           id="path184"
           style="fill:#515355;fill-opacity:1;fill-rule:nonzero;stroke:none"
           d="m 544.509,630.498 h 20.777 v 4.75 h -20.777 z" /><path
           id="path186"
           style="fill:#515355;fill-opacity:1;fill-rule:nonzero;stroke:none"
           d="m 544.509,621.831 h 20.777 v 4.75 h -20.777 z" /><path
           id="path188"
           style="fill:#515355;fill-opacity:1;fill-rule:nonzero;stroke:none"
           d="m 544.509,613.165 h 20.777 v 4.75 h -20.777 z" /><g
           transform="translate(254.1672,422.0397)"
           id="g190"><path
             id="path192"
             style="fill:#cbccce;fill-opacity:1;fill-rule:nonzero;stroke:none"
             d="m 0,0 h -94.924 c -17.19,0 -31.125,13.936 -31.125,31.125 V 110 c -3,85.25 98.75,111.875 163.5,115 h 0.962 z" /></g><g
           transform="translate(140.529,560.9343)"
           id="g194"><path
             id="path196"
             style="fill:#231f20;fill-opacity:1;fill-rule:nonzero;stroke:none"
             d="m 0,0 c 4.916,-4.296 25.881,-14.999 112.256,-13.395 l -1.667,-109 H 22.256 c -12.335,0 -22.333,9.999 -22.333,22.333 L -1.423,-0.439 C -1.005,-0.151 -0.521,-0.009 0,0" /></g><g
           transform="translate(678.1833,673.8317)"
           id="g198"><path
             id="path200"
             style="fill:#d2d3d4;fill-opacity:1;fill-rule:nonzero;stroke:none"
             d="M 0,0 C -11.274,4.75 -51.947,6.833 -77.417,6.833 H -92 c 0,0 10.5,-73.333 10.166,-106.666 -0.242,-24.245 -0.132,-55.014 -0.054,-69.991 0.026,-4.974 -3.999,-9.01 -8.972,-9.01 h -87.237 -0.765 -87.236 c -4.974,0 -8.999,4.036 -8.973,9.01 0.078,14.977 0.188,45.746 -0.054,69.991 -0.334,33.333 10.166,106.666 10.166,106.666 h -14.583 c -25.47,0 -66.143,-2.083 -77.417,-6.833 -35.399,-14.915 -87.166,-92.323 -87.166,-157.75 v -43.334 c 4.167,-59.583 31.166,-77.583 76.583,-76.583 l 189.041,-0.167 h 0.021 0.021 l 189.042,0.167 c 45.417,-1 72.417,17 76.583,76.583 v 43.334 C 87.166,-92.323 35.398,-14.915 0,0" /></g><g
           transform="translate(496.1794,461.2272)"
           id="g202"><path
             id="path204"
             style="fill:#848f8e;fill-opacity:1;fill-rule:nonzero;stroke:none"
             d="m 0,0 c -5.177,0 -9.05,0.025 -11.251,0.08 l 0.051,2 c 19.633,-0.503 172.883,1.4 190.672,2.357 8.746,0.469 17.05,0.754 24.377,1.007 43.931,1.512 65.982,2.271 65.175,36.303 l 0.146,0.003 C 270.023,5.741 247.739,4.954 203.919,3.445 196.601,3.193 188.306,2.908 179.577,2.438 163.767,1.59 41.048,0 0,0" /></g><g
           transform="translate(500.7439,461.2165)"
           id="g206"><path
             id="path208"
             style="fill:#848f8e;fill-opacity:1;fill-rule:nonzero;stroke:none"
             d="m 0,0 c -42.835,0 -160.029,1.249 -177.092,2.451 -8.635,0.608 -16.774,0.945 -24.645,1.272 -39.412,1.634 -65.844,2.625 -65.009,37.89 l 0.06,0.141 c -0.789,-33.302 25.332,-34.386 65.031,-36.032 7.885,-0.327 16.04,-0.666 24.704,-1.277 C -157.327,3.063 -5.024,1.618 13.702,2.091 l 0.051,-2 C 11.286,0.029 6.493,0 0,0" /></g><path
           id="path210"
           style="fill:#9a9fa8;fill-opacity:1;fill-rule:nonzero;stroke:none"
           d="m 433.399,589.581 h 136.834 v 13.167 H 433.399 Z" /><path
           id="path212"
           style="fill:#9a9fa8;fill-opacity:1;fill-rule:nonzero;stroke:none"
           d="m 434.899,596.248 h -13 v 13 h 13 z" /><path
           id="path214"
           style="fill:#9a9fa8;fill-opacity:1;fill-rule:nonzero;stroke:none"
           d="m 582.232,596.248 h -13 v 13 h 13 z" /><g
           transform="translate(666.5125,823.1647)"
           id="g216"><path
             id="path218"
             style="fill:#1e2122;fill-opacity:1;fill-rule:nonzero;stroke:none"
             d="m 0,0 c 0,-17.05 -13.95,-31 -31,-31 h -268.34 c -17.05,0 -31,13.95 -31,31 v 75.5 c 0,17.05 13.95,31 31,31 H -31 c 17.05,0 31,-13.95 31,-31 z" /></g><g
           transform="translate(666.5125,823.1647)"
           id="g220"><path
             id="path222"
             style="fill:none;stroke:#231f20;stroke-width:1;stroke-linecap:butt;stroke-linejoin:miter;stroke-miterlimit:10;stroke-dasharray:none;stroke-opacity:1"
             d="m 0,0 c 0,-17.05 -13.95,-31 -31,-31 h -268.34 c -17.05,0 -31,13.95 -31,31 v 75.5 c 0,17.05 13.95,31 31,31 H -31 c 17.05,0 31,-13.95 31,-31 z" /></g><g
           transform="translate(548.1287,888.1022)"
           id="g224"><path
             id="path226"
             style="fill:#27292b;fill-opacity:1;fill-rule:nonzero;stroke:none"
             d="m 0,0 h -96.445 l -7.769,13.333 H 11.388 Z" /></g><g
           transform="translate(548.1287,867.4357)"
           id="g228"><path
             id="path230"
             style="fill:#27292b;fill-opacity:1;fill-rule:nonzero;stroke:none"
             d="m 0,0 h -96.445 l -7.769,13.333 H 11.388 Z" /></g><g
           transform="translate(548.1287,845.9357)"
           id="g232"><path
             id="path234"
             style="fill:#27292b;fill-opacity:1;fill-rule:nonzero;stroke:none"
             d="m 0,0 h -96.445 l -7.769,13.333 H 11.388 Z" /></g><g
           transform="translate(548.1287,824.4357)"
           id="g236"><path
             id="path238"
             style="fill:#27292b;fill-opacity:1;fill-rule:nonzero;stroke:none"
             d="m 0,0 h -96.445 l -7.769,13.333 H 11.388 Z" /></g><g
           transform="translate(557.575,817.2687)"
           id="g240"><path
             id="path242"
             style="fill:#27292b;fill-opacity:1;fill-rule:nonzero;stroke:none"
             d="m 0,0 h -114.011 l -9.184,-13.333 H 13.462 Z" /></g><g
           transform="translate(660.7039,826.9977)"
           id="g244"><path
             id="path246"
             style="fill:none;stroke:#231f20;stroke-width:1;stroke-linecap:butt;stroke-linejoin:miter;stroke-miterlimit:10;stroke-dasharray:none;stroke-opacity:1"
             d="m 0,0 c 0,-17.05 -13.95,-31 -31,-31 h -256.667 c -17.05,0 -31,13.95 -31,31 v 66.001 c 0,17.05 13.95,31 31,31 H -31 c 17.05,0 31,-13.95 31,-31 z" /></g><g
           transform="translate(466.3689,858.6657)"
           id="g248"><path
             id="path250"
             style="fill:#605f64;fill-opacity:1;fill-rule:nonzero;stroke:none"
             d="m 0,0 c 0,-33.136 -26.862,-59.999 -59.999,-59.999 -33.136,0 -59.999,26.863 -59.999,59.999 0,33.136 26.863,59.999 59.999,59.999 C -26.862,59.999 0,33.136 0,0" /></g><g
           transform="translate(466.3689,858.6657)"
           id="g252"><path
             id="path254"
             style="fill:none;stroke:#090e0d;stroke-width:1;stroke-linecap:butt;stroke-linejoin:miter;stroke-miterlimit:10;stroke-dasharray:none;stroke-opacity:1"
             d="m 0,0 c 0,-33.136 -26.862,-59.999 -59.999,-59.999 -33.136,0 -59.999,26.863 -59.999,59.999 0,33.136 26.863,59.999 59.999,59.999 C -26.862,59.999 0,33.136 0,0 Z" /></g><g
           transform="translate(378.5373,867.4982)"
           id="g256"><path
             id="path258"
             style="fill:#090e0d;fill-opacity:1;fill-rule:nonzero;stroke:none"
             d="m 0,0 -26.712,16.187 c 0,0 -4.369,-9.03 -5.079,-18.275 -0.709,-9.245 0.421,-22.637 4.489,-30.446 4.068,-7.809 19.219,8.284 19.219,8.284 z" /></g><g
           transform="translate(434.3801,867.4982)"
           id="g260"><path
             id="path262"
             style="fill:#090e0d;fill-opacity:1;fill-rule:nonzero;stroke:none"
             d="m 0,0 26.712,16.187 c 0,0 4.37,-9.03 5.079,-18.275 0.709,-9.245 -0.421,-22.637 -4.489,-30.446 -4.068,-7.809 -19.219,8.284 -19.219,8.284 z" /></g><g
           transform="translate(462.0359,858.6657)"
           id="g264"><path
             id="path266"
             style="fill:#439dd7;fill-opacity:1;fill-rule:nonzero;stroke:none"
             d="m 0,0 c 0,-30.743 -24.923,-55.666 -55.666,-55.666 -30.743,0 -55.666,24.923 -55.666,55.666 0,30.743 24.923,55.666 55.666,55.666 C -24.923,55.666 0,30.743 0,0" /></g><g
           transform="translate(462.0359,858.6657)"
           id="g268"><path
             id="path270"
             style="fill:none;stroke:#0b0b0c;stroke-width:1;stroke-linecap:butt;stroke-linejoin:miter;stroke-miterlimit:10;stroke-dasharray:none;stroke-opacity:1"
             d="m 0,0 c 0,-30.743 -24.923,-55.666 -55.666,-55.666 -30.743,0 -55.666,24.923 -55.666,55.666 0,30.743 24.923,55.666 55.666,55.666 C -24.923,55.666 0,30.743 0,0 Z" /></g><g
           transform="translate(656.8015,858.6657)"
           id="g272"><path
             id="path274"
             style="fill:#605f64;fill-opacity:1;fill-rule:nonzero;stroke:none"
             d="m 0,0 c 0,-33.136 -26.863,-59.999 -60,-59.999 -33.135,0 -59.998,26.863 -59.998,59.999 0,33.136 26.863,59.999 59.998,59.999 C -26.863,59.999 0,33.136 0,0" /></g><g
           transform="translate(656.8015,858.6657)"
           id="g276"><path
             id="path278"
             style="fill:none;stroke:#090e0d;stroke-width:1;stroke-linecap:butt;stroke-linejoin:miter;stroke-miterlimit:10;stroke-dasharray:none;stroke-opacity:1"
             d="m 0,0 c 0,-33.136 -26.863,-59.999 -60,-59.999 -33.135,0 -59.998,26.863 -59.998,59.999 0,33.136 26.863,59.999 59.998,59.999 C -26.863,59.999 0,33.136 0,0 Z" /></g><g
           transform="translate(568.8816,867.4982)"
           id="g280"><path
             id="path282"
             style="fill:#090e0d;fill-opacity:1;fill-rule:nonzero;stroke:none"
             d="m 0,0 -26.711,16.187 c 0,0 -4.37,-9.03 -5.079,-18.275 -0.71,-9.245 0.421,-22.637 4.488,-30.446 4.069,-7.809 19.219,8.284 19.219,8.284 z" /></g><g
           transform="translate(624.7253,867.4982)"
           id="g284"><path
             id="path286"
             style="fill:#090e0d;fill-opacity:1;fill-rule:nonzero;stroke:none"
             d="m 0,0 26.711,16.187 c 0,0 4.37,-9.03 5.079,-18.275 0.71,-9.245 -0.421,-22.637 -4.488,-30.446 -4.069,-7.809 -19.219,8.284 -19.219,8.284 z" /></g><g
           transform="translate(652.4695,858.6657)"
           id="g288"><path
             id="path290"
             style="fill:#439dd7;fill-opacity:1;fill-rule:nonzero;stroke:none"
             d="m 0,0 c 0,-30.743 -24.924,-55.666 -55.668,-55.666 -30.742,0 -55.664,24.923 -55.664,55.666 0,30.743 24.922,55.666 55.664,55.666 C -24.924,55.666 0,30.743 0,0" /></g><g
           transform="translate(652.4695,858.6657)"
           id="g292"><path
             id="path294"
             style="fill:none;stroke:#0b0b0c;stroke-width:1;stroke-linecap:butt;stroke-linejoin:miter;stroke-miterlimit:10;stroke-dasharray:none;stroke-opacity:1"
             d="m 0,0 c 0,-30.743 -24.924,-55.666 -55.668,-55.666 -30.742,0 -55.664,24.923 -55.664,55.666 0,30.743 24.922,55.666 55.664,55.666 C -24.924,55.666 0,30.743 0,0 Z" /></g><g
           transform="translate(590.8708,988.2897)"
           id="g296"><path
             id="path298"
             style="fill:#bcbdc1;fill-opacity:1;fill-rule:nonzero;stroke:none"
             d="m 0,0 h -179.876 l -7.458,-23.375 H 7 Z" /></g><g
           transform="translate(706.5271,849.1647)"
           id="g300"><path
             id="path302"
             style="fill:#a8a9ad;fill-opacity:1;fill-rule:nonzero;stroke:none"
             d="m 0,0 v -25.833 h 17.334 c 3.405,0 6.166,0.884 6.166,1.975 V 0 Z" /></g><g
           transform="translate(277.3088,823.3312)"
           id="g304"><path
             id="path306"
             style="fill:#cccdcf;fill-opacity:1;fill-rule:nonzero;stroke:none"
             d="M 0,0 H 20.417 V 107.271 H 8.667 c -6.49,0 -11.75,-5.261 -11.75,-11.75 V 3.083 C -3.083,1.381 -1.703,0 0,0" /></g><g
           transform="translate(278.1018,904.5666)"
           id="g308"><path
             id="path310"
             style="fill:#a8a9ad;fill-opacity:1;fill-rule:nonzero;stroke:none"
             d="M 0,0 H 19.78 L 19.624,23.458 17.905,23.266 C 7.393,23.266 -1.752,14.333 -1.752,4.651 V 4.538 C -1.752,1.998 -2.759,0 0,0" /></g><g
           transform="translate(297.7253,849.1647)"
           id="g312"><path
             id="path314"
             style="fill:#a8a9ad;fill-opacity:1;fill-rule:nonzero;stroke:none"
             d="m 0,0 v -25.833 h -17.333 c -3.406,0 -6.167,0.884 -6.167,1.975 V 0 Z" /></g><path
           id="path316"
           style="fill:#858f8e;fill-opacity:1;fill-rule:nonzero;stroke:none"
           d="M 525.037,975.686 H 475.87 v 3.313 h 49.167 z" /><g
           transform="translate(489.2038,975.6857)"
           id="g318"><path
             id="path320"
             style="fill:#6f0c23;fill-opacity:1;fill-rule:nonzero;stroke:none"
             d="M 0,0 C 0,6.351 5.149,11.5 11.5,11.5 17.852,11.5 23,6.351 23,0" /></g><g
           transform="translate(601.8582,862.6125)"
           id="g322"><path
             id="path324"
             style="fill:#cdb3ce;fill-opacity:1;fill-rule:nonzero;stroke:none"
             d="M 0,0 C 0,0 14.078,-16.426 23.465,-15.252 32.851,-14.079 48.689,0 35.197,27.571 21.705,55.142 -35.784,37.543 0,0" /></g><g
           transform="translate(409.9563,862.6125)"
           id="g326"><path
             id="path328"
             style="fill:#cdb3ce;fill-opacity:1;fill-rule:nonzero;stroke:none"
             d="M 0,0 C 0,0 14.079,-16.426 23.465,-15.252 32.851,-14.079 48.689,0 35.197,27.571 21.705,55.142 -35.784,37.543 0,0" /></g><g
           transform="translate(805.0183,545.1545)"
           id="g330"><path
             id="path332"
             style="fill:#aeaeb5;fill-opacity:1;fill-rule:nonzero;stroke:none"
             d="m 0,0 c 0,0 20.707,-0.199 36.635,2.787 15.928,2.987 16.924,5.376 16.924,5.376 0,0 9.756,3.584 19.911,-1.991 10.154,-5.575 55.35,-28.472 59.929,-31.459 4.58,-2.986 16.924,-30.463 17.522,-38.825 0.598,-8.362 1.194,-31.26 1.194,-31.26 0,0 0.199,-3.185 -11.747,-11.149 -11.946,-7.964 -88.999,-47.984 -88.999,-47.984 L 0,-210.653 v -17.919 l -11.349,-17.919 v -24.291 c 0,0 -12.344,-11.548 -33.649,-12.743 -21.304,-1.194 -38.028,13.539 -38.028,13.539 v 74.792 c 0,3.495 1.353,6.855 3.776,9.373 l 61.928,64.367 23.295,37.034 c 0,0 -15.729,15.928 -15.928,19.313 -0.199,3.385 0,38.228 0,38.228 0,0 1.792,21.901 9.955,26.879" /></g><g
           transform="translate(826.322,534.5353)"
           id="g334"><path
             id="path336"
             style="fill:#5f676e;fill-opacity:1;fill-rule:nonzero;stroke:none"
             d="m 0,0 -2.868,-0.573 c 0,0 15.08,-28.762 15.611,-28.762 0.531,0 33.981,4.248 39.556,4.779 5.574,0.531 48.182,4.247 48.182,4.247 L 42.476,6.902 Z" /></g><g
           transform="translate(825.3933,530.0222)"
           id="g338"><path
             id="path340"
             style="fill:#40474d;fill-opacity:1;fill-rule:nonzero;stroke:none"
             d="M 0,0 C 0.398,0 43.139,7.301 43.139,7.301 L 84.951,-16.857 101.41,-15.795 44.334,16.459 -4.248,8.628 Z" /></g><g
           transform="translate(925.6091,508.652)"
           id="g342"><path
             id="path344"
             style="fill:#5f676e;fill-opacity:1;fill-rule:nonzero;stroke:none"
             d="m 0,0 -80.969,-11.813 c 0,0 0.398,-2.125 5.442,-2.39 5.044,-0.265 36.768,-2.124 36.768,-2.124 l 14.734,2.257 c 0,0 23.892,12.212 24.025,12.61 C 0.133,-1.062 0,0 0,0" /></g><g
           transform="translate(797.3142,487.8122)"
           id="g346"><path
             id="path348"
             style="fill:#6d747b;fill-opacity:1;fill-rule:nonzero;stroke:none"
             d="m 0,0 -3.512,9.759 c 0,0 1.919,41.61 7.694,45.393 5.773,3.783 5.773,2.588 5.773,2.588 L 8.362,47.586 31.061,11.349 c 0,0 1.991,-6.769 0,-9.557 -1.992,-2.788 -7.434,-16.791 -7.434,-16.791" /></g><g
           transform="translate(821.1453,472.8131)"
           id="g350"><path
             id="path352"
             style="fill:#2c3033;fill-opacity:1;fill-rule:nonzero;stroke:none"
             d="M 0,0 C -0.663,0 -27.343,30.131 -27.343,30.131 L -26.414,5.708 -8.229,-14.203 Z" /></g><g
           transform="translate(852.8699,418.5241)"
           id="g354"><path
             id="path356"
             style="fill:#c8c9cd;fill-opacity:1;fill-rule:nonzero;stroke:none"
             d="m 0,0 101.145,52.763 -13.34,33.914 c 0,0 -3.186,3.451 -8.761,0 C 73.469,83.226 47.188,68.492 47.188,68.492 47.188,68.492 3.186,11.149 0,0" /></g><g
           transform="translate(896.5095,483.6315)"
           id="g358"><path
             id="path360"
             style="fill:#6d7177;fill-opacity:1;fill-rule:nonzero;stroke:none"
             d="m 0,0 -64.469,8.959 c 0,0 -44.884,-68.89 -44.272,-69.288 0.612,-0.399 64.061,-4.579 64.061,-4.579 z" /></g><g
           transform="translate(855.8923,390.6491)"
           id="g362"><path
             id="path364"
             style="fill:#6d7177;fill-opacity:1;fill-rule:nonzero;stroke:none"
             d="m 0,0 -2.986,28.074 103.335,52.63 1.327,-20.441 c 0,0 -4.779,-8.761 -9.822,-11.415 C 86.81,46.192 0,0 0,0" /></g><g
           transform="translate(728.6951,352.82)"
           id="g366"><path
             id="path368"
             style="fill:#6d7177;fill-opacity:1;fill-rule:nonzero;stroke:none"
             d="m 0,0 h 60.328 v -62.121 c 0,0 -0.597,-8.959 -27.874,-10.154 C 5.177,-73.47 0,-61.723 0,-61.723 Z" /></g><path
           id="path370"
           style="fill:#2b3033;fill-opacity:1;fill-rule:nonzero;stroke:none"
           d="m 778.372,346.647 h -39.024 v -2.588 h 39.024 z" /><g
           transform="translate(776.7791,292.8893)"
           id="g372"><path
             id="path374"
             style="fill:#2b3033;fill-opacity:1;fill-rule:nonzero;stroke:none"
             d="m 0,0 c 0,-3.299 -8.023,-5.974 -17.92,-5.974 -9.896,0 -17.919,2.675 -17.919,5.974 0,3.299 8.023,5.973 17.919,5.973 C -8.023,5.973 0,3.299 0,0" /></g><path
           id="path376"
           style="fill:#76797d;fill-opacity:1;fill-rule:nonzero;stroke:none"
           d="m 740.94,292.889 h -1.621 v 53.788 h 1.621 z" /><path
           id="path378"
           style="fill:#76797d;fill-opacity:1;fill-rule:nonzero;stroke:none"
           d="m 778.372,292.889 h -1.621 v 53.788 h 1.621 z" /><g
           transform="translate(739.3191,292.8893)"
           id="g380"><path
             id="path382"
             style="fill:#76797d;fill-opacity:1;fill-rule:nonzero;stroke:none"
             d="M 0,0 C 0,0 2.583,-7.019 19.54,-6.77 36.497,-6.521 39.053,0 39.053,0 h -1.621 c 0,0 -1.201,-4.878 -17.892,-5.525 C 2.849,-6.172 1.621,0 1.621,0 Z" /></g><g
           transform="translate(203.198,545.1545)"
           id="g384"><path
             id="path386"
             style="fill:#aeaeb5;fill-opacity:1;fill-rule:nonzero;stroke:none"
             d="m 0,0 c 0,0 -20.707,-0.199 -36.635,2.787 -15.928,2.987 -16.924,5.376 -16.924,5.376 0,0 -9.756,3.584 -19.91,-1.991 -10.155,-5.575 -55.351,-28.472 -59.931,-31.459 -4.579,-2.986 -16.924,-30.463 -17.521,-38.825 -0.597,-8.362 -1.195,-31.26 -1.195,-31.26 0,0 -0.198,-3.185 11.748,-11.149 11.946,-7.964 88.999,-47.984 88.999,-47.984 L 0,-210.653 v -17.919 l 11.349,-17.919 v -24.291 c 0,0 12.344,-11.548 33.649,-12.743 21.304,-1.194 38.028,13.539 38.028,13.539 v 74.792 c 0,3.495 -1.353,6.855 -3.776,9.373 l -61.928,64.367 -23.295,37.034 c 0,0 15.729,15.928 15.928,19.313 0.199,3.385 0,38.228 0,38.228 0,0 -1.792,21.901 -9.955,26.879" /></g><g
           transform="translate(181.8938,534.5353)"
           id="g388"><path
             id="path390"
             style="fill:#5f676e;fill-opacity:1;fill-rule:nonzero;stroke:none"
             d="m 0,0 2.869,-0.573 c 0,0 -15.08,-28.762 -15.612,-28.762 -0.53,0 -33.98,4.248 -39.555,4.779 -5.575,0.531 -48.183,4.247 -48.183,4.247 l 58.005,27.211 z" /></g><g
           transform="translate(182.823,530.0222)"
           id="g392"><path
             id="path394"
             style="fill:#40474d;fill-opacity:1;fill-rule:nonzero;stroke:none"
             d="m 0,0 c -0.398,0 -43.139,7.301 -43.139,7.301 l -41.812,-24.158 -16.459,1.062 57.076,32.254 48.582,-7.831 z" /></g><g
           transform="translate(82.6072,508.652)"
           id="g396"><path
             id="path398"
             style="fill:#5f676e;fill-opacity:1;fill-rule:nonzero;stroke:none"
             d="m 0,0 80.969,-11.813 c 0,0 -0.398,-2.125 -5.442,-2.39 -5.044,-0.265 -36.768,-2.124 -36.768,-2.124 L 24.025,-14.07 C 24.025,-14.07 0.133,-1.858 0,-1.46 -0.133,-1.062 0,0 0,0" /></g><g
           transform="translate(210.9021,487.8122)"
           id="g400"><path
             id="path402"
             style="fill:#6d747b;fill-opacity:1;fill-rule:nonzero;stroke:none"
             d="m 0,0 3.512,9.759 c 0,0 -1.919,41.61 -7.693,45.393 -5.774,3.783 -5.774,2.588 -5.774,2.588 L -8.362,47.586 -31.06,11.349 c 0,0 -1.991,-6.769 0,-9.557 1.991,-2.788 7.433,-16.791 7.433,-16.791" /></g><g
           transform="translate(187.0705,472.8131)"
           id="g404"><path
             id="path406"
             style="fill:#2c3033;fill-opacity:1;fill-rule:nonzero;stroke:none"
             d="M 0,0 C 0.664,0 27.344,30.131 27.344,30.131 L 26.415,5.708 8.229,-14.203 Z" /></g><g
           transform="translate(155.3469,418.5241)"
           id="g408"><path
             id="path410"
             style="fill:#c8c9cd;fill-opacity:1;fill-rule:nonzero;stroke:none"
             d="m 0,0 -101.145,52.763 13.34,33.914 c 0,0 3.185,3.451 8.761,0 5.574,-3.451 31.856,-18.185 31.856,-18.185 0,0 44.002,-57.343 47.188,-68.492" /></g><g
           transform="translate(111.7068,483.6315)"
           id="g412"><path
             id="path414"
             style="fill:#6d7177;fill-opacity:1;fill-rule:nonzero;stroke:none"
             d="m 0,0 64.469,8.959 c 0,0 44.884,-68.89 44.272,-69.288 -0.612,-0.399 -64.061,-4.579 -64.061,-4.579 z" /></g><g
           transform="translate(152.324,390.6491)"
           id="g416"><path
             id="path418"
             style="fill:#6d7177;fill-opacity:1;fill-rule:nonzero;stroke:none"
             d="m 0,0 2.986,28.074 -103.335,52.63 -1.327,-20.441 c 0,0 4.779,-8.761 9.822,-11.415 C -86.81,46.192 0,0 0,0" /></g><g
           transform="translate(279.5212,352.82)"
           id="g420"><path
             id="path422"
             style="fill:#6d7177;fill-opacity:1;fill-rule:nonzero;stroke:none"
             d="m 0,0 h -60.329 v -62.121 c 0,0 0.598,-8.959 27.875,-10.154 C -5.177,-73.47 0,-61.723 0,-61.723 Z" /></g><path
           id="path424"
           style="fill:#2b3033;fill-opacity:1;fill-rule:nonzero;stroke:none"
           d="m 229.845,346.647 h 39.024 v -2.588 h -39.024 z" /><g
           transform="translate(231.4377,292.8893)"
           id="g426"><path
             id="path428"
             style="fill:#2b3033;fill-opacity:1;fill-rule:nonzero;stroke:none"
             d="m 0,0 c 0,-3.299 8.022,-5.974 17.919,-5.974 9.897,0 17.92,2.675 17.92,5.974 0,3.299 -8.023,5.973 -17.92,5.973 C 8.022,5.973 0,3.299 0,0" /></g><path
           id="path430"
           style="fill:#76797d;fill-opacity:1;fill-rule:nonzero;stroke:none"
           d="m 267.277,292.889 h 1.62 v 53.788 h -1.62 z" /><path
           id="path432"
           style="fill:#76797d;fill-opacity:1;fill-rule:nonzero;stroke:none"
           d="m 229.845,292.889 h 1.621 v 53.788 h -1.621 z" /><g
           transform="translate(268.8967,292.8893)"
           id="g434"><path
             id="path436"
             style="fill:#76797d;fill-opacity:1;fill-rule:nonzero;stroke:none"
             d="M 0,0 C 0,0 -2.583,-7.019 -19.54,-6.77 -36.497,-6.521 -39.052,0 -39.052,0 h 1.621 c 0,0 1.2,-4.878 17.891,-5.525 C -2.848,-6.172 -1.62,0 -1.62,0 Z" /></g><g
           transform="translate(504.1081,434.4128)"
           id="g438"><path
             id="path440"
             style="fill:none;stroke:#231f20;stroke-width:18;stroke-linecap:round;stroke-linejoin:bevel;stroke-miterlimit:10;stroke-dasharray:none;stroke-opacity:1"
             d="M 0,0 V 61.575" /></g><g
           transform="translate(780.4421,24.359)"
           id="g442"><path
             id="path444"
             style="fill:#332f2e;fill-opacity:1;fill-rule:nonzero;stroke:none"
             d="M 0,0 C -44.326,0 -86.285,14.076 -121.497,40.731 H -431.171 C -466.383,14.076 -508.342,0 -552.668,0 c -53.841,0 -104.459,20.967 -142.531,59.038 -38.072,38.071 -59.039,88.69 -59.039,142.531 0,53.842 20.967,104.46 59.039,142.532 38.072,38.071 88.69,59.038 142.531,59.038 H 0 c 53.841,0 104.46,-20.967 142.531,-59.038 38.073,-38.072 59.039,-88.69 59.039,-142.532 0,-53.841 -20.966,-104.46 -59.039,-142.531 C 104.46,20.967 53.841,0 0,0" /></g><g
           transform="translate(780.4421,31.0934)"
           id="g446"><path
             id="path448"
             style="fill:#5f6168;fill-opacity:1;fill-rule:nonzero;stroke:none"
             d="M 0,0 C -44.909,0 -86.263,15.203 -119.215,40.731 H -433.454 C -466.405,15.203 -507.758,0 -552.668,0 c -107.604,0 -194.835,87.23 -194.835,194.835 0,107.604 87.231,194.835 194.835,194.835 h 4.209 H -4.209 0 c 107.604,0 194.835,-87.231 194.835,-194.835 C 194.835,87.23 107.604,0 0,0 m 201.232,279.855 c -10.815,25.571 -26.224,48.568 -45.793,68.389 0.79,0.756 1.533,1.571 2.213,2.454 7.283,9.444 5.631,23.002 -3.631,30.433 -21.009,19.084 -44.95,33.902 -71.157,44.043 C 56.51,435.371 28.631,440.542 0,440.542 h -65.844 -10.943 -4.209 c -12.068,0 -21.887,-9.818 -21.887,-21.887 0,-1.868 0.237,-3.682 0.679,-5.415 h -349.52 c 0.443,1.733 0.68,3.547 0.68,5.415 0,12.069 -9.819,21.887 -21.887,21.887 h -4.209 -10.944 -65.844 c -28.63,0 -56.51,-5.171 -82.864,-15.368 -26.207,-10.141 -50.146,-24.959 -71.156,-44.042 -9.262,-7.431 -10.914,-20.99 -3.632,-30.434 0.869,-1.127 1.835,-2.146 2.876,-3.065 -19.283,-19.683 -34.492,-42.468 -45.197,-67.778 -11.395,-26.941 -17.173,-55.545 -17.173,-85.02 0,-29.474 5.778,-58.079 17.173,-85.021 11.002,-26.01 26.747,-49.365 46.797,-69.415 20.05,-20.05 43.405,-35.795 69.416,-46.796 26.94,-11.396 55.546,-17.173 85.02,-17.173 24.616,0 48.789,4.072 71.845,12.104 19.687,6.858 38.213,16.473 55.179,28.627 h 298.62 c 16.966,-12.154 35.492,-21.769 55.178,-28.627 23.058,-8.032 47.23,-12.104 71.846,-12.104 29.475,0 58.079,5.777 85.021,17.173 26.01,11.001 49.365,26.746 69.416,46.796 20.049,20.05 35.794,43.405 46.795,69.415 11.396,26.942 17.173,55.547 17.173,85.021 0,29.475 -5.777,58.079 -17.173,85.02" /></g><g
           transform="translate(344.3279,190.1452)"
           id="g450"><path
             id="path452"
             style="fill:#5f6168;fill-opacity:1;fill-rule:nonzero;stroke:none"
             d="M 0,0 C -1.88,-2.771 -5.056,-4.609 -8.62,-4.609 H -8.621 -80.29 v -71.67 c 0,-5.705 -4.307,-10.011 -10.01,-10.011 v 0 h -58.056 c -5.704,0 -10.01,4.308 -10.011,10.011 v 71.67 h -71.668 c -5.705,0 -10.412,4.706 -10.412,10.409 v 57.656 c 0,5.703 4.707,10.411 10.412,10.411 h 71.668 v 71.669 c 0,5.704 4.307,10.41 10.011,10.41 H -90.3 v 0 c 5.703,0 10.01,-4.706 10.01,-10.41 V 73.867 h 71.669 0.001 c 2.852,0 5.454,-1.177 7.344,-3.066 C 0.613,68.91 1.79,66.308 1.79,63.456 V 5.8 C 1.79,3.661 1.128,1.663 0,0 m -119.328,181.294 c -80.891,0 -146.465,-65.575 -146.465,-146.466 0,-80.891 65.574,-146.465 146.465,-146.465 80.89,0 146.465,65.574 146.465,146.465 0,80.891 -65.575,146.466 -146.465,146.466" /></g><g
           transform="translate(911.0476,151.4362)"
           id="g454"><path
             id="path456"
             style="fill:#5f6168;fill-opacity:1;fill-rule:nonzero;stroke:none"
             d="m 0,0 -91.652,-69.065 c -10.92,-8.229 -23.94,-12.579 -37.652,-12.579 -19.658,0 -38.415,9.318 -50.174,24.922 -10.048,13.336 -14.296,29.837 -11.96,46.46 2.336,16.624 10.967,31.314 24.304,41.364 l 91.653,69.065 c 10.918,8.228 23.939,12.577 37.651,12.577 19.658,0 38.413,-9.315 50.173,-24.92 C 22.393,74.487 26.641,57.987 24.304,41.363 21.968,24.739 13.336,10.05 0,0 m -268.809,54.782 c -10.049,13.337 -14.297,29.837 -11.962,46.461 2.336,16.624 10.968,31.314 24.305,41.363 l 91.653,69.066 c 10.919,8.227 23.939,12.577 37.651,12.577 19.658,0 38.414,-9.316 50.173,-24.921 20.81,-27.616 15.273,-67.014 -12.343,-87.824 l -91.652,-69.065 c -10.919,-8.228 -23.94,-12.578 -37.652,-12.578 -19.658,0 -38.413,9.317 -50.173,24.921 m 138.081,199.72 c -99.881,0 -180.851,-80.97 -180.851,-180.852 0,-99.881 80.97,-180.851 180.851,-180.851 99.882,0 180.852,80.97 180.852,180.851 0,99.882 -80.97,180.852 -180.852,180.852" /></g><g
           transform="translate(569.5212,194.192)"
           id="g458"><path
             id="path460"
             style="fill:#5f6168;fill-opacity:1;fill-rule:nonzero;stroke:none"
             d="m 0,0 -39.436,-29.666 c -8.537,-6.422 -20.501,-4.924 -26.722,3.347 -6.222,8.27 -4.345,20.181 4.191,26.603 L -22.53,29.95 c 8.537,6.423 20.501,4.924 26.722,-3.347 C 10.414,18.332 8.538,6.423 0,0 M -30.145,38.649 -67.96,10.203 c -12.898,-9.703 -15.228,-28.449 -5.195,-41.787 10.033,-13.337 28.689,-16.292 41.588,-6.589 L 6.247,-9.727 c 12.899,9.704 15.231,28.448 5.197,41.785 -10.033,13.337 -28.69,16.295 -41.589,6.591" /></g><g
           transform="translate(463.362,194.192)"
           id="g462"><path
             id="path464"
             style="fill:#5f6168;fill-opacity:1;fill-rule:nonzero;stroke:none"
             d="m 0,0 -39.437,-29.666 c -8.536,-6.422 -20.5,-4.924 -26.722,3.347 -6.222,8.27 -4.344,20.181 4.192,26.603 L -22.531,29.95 C -13.993,36.373 -2.03,34.874 4.192,26.603 10.414,18.332 8.538,6.423 0,0 M -30.145,38.649 -67.959,10.203 c -12.899,-9.703 -15.229,-28.449 -5.196,-41.787 10.032,-13.337 28.688,-16.292 41.587,-6.589 L 6.246,-9.727 c 12.899,9.704 15.231,28.448 5.198,41.785 -10.033,13.337 -28.691,16.295 -41.589,6.591" /></g><g
           transform="translate(203.2038,290.1071)"
           id="g466"><path
             id="path468"
             style="fill:#eff1f3;fill-opacity:1;fill-rule:nonzero;stroke:none"
             d="M 0,0 21.845,37.836 43.689,0 Z M 44.956,44.94 H -1.687 c -2.778,0 -5.051,-2.272 -5.051,-5.05 v -64.581 l 28.594,-28.594 28.15,28.149 V 39.89 c 0,2.778 -2.273,5.05 -5.05,5.05" /></g><g
           transform="translate(225.0486,120.7731)"
           id="g470"><path
             id="path472"
             style="fill:#eff1f3;fill-opacity:1;fill-rule:nonzero;stroke:none"
             d="m 0,0 -21.845,37.836 h 43.69 z M 0.011,92.214 -28.583,63.62 V -1.975 c 0,-2.778 2.273,-5.05 5.051,-5.05 h 46.643 c 2.778,0 5.051,2.272 5.051,5.05 v 66.038 z" /></g><g
           transform="translate(292.5866,202.2956)"
           id="g474"><path
             id="path476"
             style="fill:#eff1f3;fill-opacity:1;fill-rule:nonzero;stroke:none"
             d="M 0,0 V 43.689 L 37.836,21.845 Z M 37.746,51.098 H -27.849 L -55.714,23.232 -26.835,-5.646 h 64.581 c 2.778,0 5.051,2.273 5.051,5.05 v 46.643 c 0,2.778 -2.273,5.051 -5.051,5.051" /></g><g
           transform="translate(156.7668,202.2956)"
           id="g478"><path
             id="path480"
             style="fill:#eff1f3;fill-opacity:1;fill-rule:nonzero;stroke:none"
             d="M 0,0 -37.836,21.845 0,43.689 Z m 28.293,51.098 h -66.039 c -2.778,0 -5.051,-2.273 -5.051,-5.051 V -0.596 c 0,-2.777 2.273,-5.05 5.051,-5.05 h 65.025 l 28.879,28.878 z" /></g><g
           transform="translate(93.8874,385.7819)"
           id="g482"><path
             id="path484"
             style="fill:#eff1f3;fill-opacity:1;fill-rule:nonzero;stroke:none"
             d="m 0,0 c -5.5,-4.24 -13.469,-3.211 -17.71,2.289 -4.241,5.499 -3.211,13.469 2.289,17.71 40.591,36.975 92.754,57.22 148.031,57.22 h 65.844 10.943 4.209 c 6.945,0 12.627,-5.682 12.627,-12.627 0,-6.945 -5.682,-12.627 -12.627,-12.627 h -4.209 -10.943 -61.635 -4.209 C 88.343,51.965 47.536,37.19 14.822,12.317 Z" /></g><g
           transform="translate(912.6248,385.7819)"
           id="g486"><path
             id="path488"
             style="fill:#eff1f3;fill-opacity:1;fill-rule:nonzero;stroke:none"
             d="m 0,0 c 5.5,-4.24 13.47,-3.211 17.71,2.289 4.241,5.499 3.211,13.469 -2.288,17.71 -40.592,36.975 -92.755,57.22 -148.031,57.22 h -65.845 -10.943 -4.209 c -6.945,0 -12.627,-5.682 -12.627,-12.627 0,-6.945 5.682,-12.627 12.627,-12.627 h 4.209 10.943 61.636 4.209 c 44.266,0 85.074,-14.775 117.788,-39.648 z" /></g><g
           transform="translate(738.1375,243.0934)"
           id="g490"><path
             id="path492"
             style="fill:#eff1f3;fill-opacity:1;fill-rule:nonzero;stroke:none"
             d="m 0,0 c 0,-26.145 -21.193,-47.338 -47.339,-47.338 -26.144,0 -47.338,21.193 -47.338,47.338 0,26.146 21.194,47.339 47.338,47.339 C -21.193,47.339 0,26.146 0,0" /></g><g
           transform="translate(831.5769,313.8044)"
           id="g494"><path
             id="path496"
             style="fill:#eff1f3;fill-opacity:1;fill-rule:nonzero;stroke:none"
             d="m 0,0 c 0,-26.145 -21.193,-47.338 -47.339,-47.338 -26.144,0 -47.339,21.193 -47.339,47.338 0,26.146 21.195,47.339 47.339,47.339 C -21.193,47.339 0,26.146 0,0" /></g><g
           transform="translate(828.2097,130.2926)"
           id="g498"><path
             id="path500"
             style="fill:#eff1f3;fill-opacity:1;fill-rule:nonzero;stroke:none"
             d="m 0,0 c 0,-26.145 -21.193,-47.338 -47.339,-47.338 -26.144,0 -47.339,21.193 -47.339,47.338 0,26.146 21.195,47.339 47.339,47.339 C -21.193,47.339 0,26.146 0,0" /></g><g
           transform="translate(920.8074,201.0036)"
           id="g502"><path
             id="path504"
             style="fill:#eff1f3;fill-opacity:1;fill-rule:nonzero;stroke:none"
             d="m 0,0 c 0,-26.145 -21.193,-47.338 -47.339,-47.338 -26.144,0 -47.339,21.193 -47.339,47.338 0,26.146 21.195,47.339 47.339,47.339 C -21.193,47.339 0,26.146 0,0" /></g><g
           transform="translate(443.0866,218.8815)"
           id="g506"><path
             id="path508"
             style="fill:#eff1f3;fill-opacity:1;fill-rule:nonzero;stroke:none"
             d="m 0,0 -36.956,-27.265 c -6.832,-5.041 -8.847,-13.944 -4.493,-19.846 4.355,-5.903 13.455,-6.602 20.287,-1.562 l 36.956,27.265 c 6.832,5.041 8.849,13.942 4.495,19.845 C 15.934,4.339 6.833,5.04 0,0" /></g><g
           transform="translate(549.1531,218.8815)"
           id="g510"><path
             id="path512"
             style="fill:#eff1f3;fill-opacity:1;fill-rule:nonzero;stroke:none"
             d="m 0,0 -36.955,-27.265 c -6.833,-5.041 -8.848,-13.944 -4.493,-19.846 4.353,-5.903 13.454,-6.602 20.286,-1.562 l 36.956,27.265 c 6.832,5.041 8.85,13.942 4.495,19.845 C 15.935,4.339 6.833,5.04 0,0" /></g></g></g></g></svg>